<?xml version="1.0" encoding="UTF-8"?><svg xmlns="http://www.w3.org/2000/svg" xmlns:xlink="http://www.w3.org/1999/xlink" width="150pt" zoomAndPan="magnify" viewBox="0 0 150 149.999998" height="149.999998pt" preserveAspectRatio="xMidYMid meet" version="1.2"><defs><clipPath xml:id="clip1" id="clip1"><path d="M 3.984375 28.042969 L 146.457031 28.042969 L 146.457031 105.289062 L 3.984375 105.289062 Z M 3.984375 28.042969 "/></clipPath></defs><g xml:id="surface1" id="surface1"><g clip-rule="nonzero" clip-path="url(#clip1)"><path style=" stroke:none;fill-rule:nonzero;fill:rgb(100%,0%,0%);fill-opacity:1;" d="M 144.203125 39.902344 L 120.945312 51.621094 L 120.945312 31.273438 C 120.945312 29.492188 119.492188 28.042969 117.695312 28.042969 L 7.234375 28.042969 C 5.4375 28.042969 3.984375 29.492188 3.984375 31.273438 L 3.984375 102.058594 C 3.984375 103.84375 5.4375 105.289062 7.234375 105.289062 L 117.695312 105.289062 C 119.492188 105.289062 120.945312 103.84375 120.945312 102.058594 L 120.945312 81.710938 L 144.203125 93.433594 C 145.449219 93.433594 146.457031 92.429688 146.457031 91.191406 L 146.457031 42.140625 C 146.457031 40.902344 145.449219 39.902344 144.203125 39.902344 "/></g><path style=" stroke:none;fill-rule:nonzero;fill:rgb(100%,100%,100%);fill-opacity:1;" d="M 35.566406 81.234375 C 35.566406 81.777344 35.542969 82.234375 35.496094 82.605469 C 35.453125 82.976562 35.382812 83.285156 35.292969 83.527344 C 35.199219 83.773438 35.085938 83.949219 34.949219 84.054688 C 34.816406 84.164062 34.65625 84.21875 34.472656 84.21875 L 18.300781 84.21875 C 17.699219 84.21875 17.195312 84.042969 16.789062 83.691406 C 16.378906 83.335938 16.175781 82.765625 16.175781 81.96875 L 16.175781 50.089844 C 16.175781 49.910156 16.234375 49.746094 16.351562 49.601562 C 16.46875 49.457031 16.664062 49.339844 16.9375 49.25 C 17.210938 49.160156 17.578125 49.085938 18.042969 49.035156 C 18.503906 48.980469 19.082031 48.953125 19.773438 48.953125 C 20.484375 48.953125 21.0625 48.980469 21.519531 49.035156 C 21.972656 49.085938 22.335938 49.160156 22.609375 49.25 C 22.882812 49.339844 23.078125 49.457031 23.195312 49.601562 C 23.316406 49.746094 23.375 49.910156 23.375 50.089844 L 23.375 78.332031 L 34.472656 78.332031 C 34.65625 78.332031 34.816406 78.382812 34.949219 78.480469 C 35.085938 78.582031 35.199219 78.746094 35.292969 78.96875 C 35.382812 79.195312 35.453125 79.496094 35.496094 79.863281 C 35.542969 80.234375 35.566406 80.691406 35.566406 81.234375 "/><path style=" stroke:none;fill-rule:nonzero;fill:rgb(100%,100%,100%);fill-opacity:1;" d="M 46.992188 83.242188 C 46.992188 83.425781 46.933594 83.585938 46.816406 83.730469 C 46.695312 83.875 46.5 83.992188 46.230469 84.085938 C 45.957031 84.175781 45.59375 84.246094 45.136719 84.300781 C 44.683594 84.355469 44.101562 84.382812 43.390625 84.382812 C 42.703125 84.382812 42.125 84.355469 41.660156 84.300781 C 41.195312 84.246094 40.828125 84.175781 40.554688 84.085938 C 40.28125 83.992188 40.085938 83.875 39.96875 83.730469 C 39.851562 83.585938 39.792969 83.425781 39.792969 83.242188 L 39.792969 50.089844 C 39.792969 49.910156 39.851562 49.746094 39.96875 49.601562 C 40.085938 49.457031 40.289062 49.339844 40.570312 49.25 C 40.851562 49.160156 41.21875 49.085938 41.675781 49.035156 C 42.128906 48.980469 42.703125 48.953125 43.390625 48.953125 C 44.101562 48.953125 44.683594 48.980469 45.136719 49.035156 C 45.59375 49.085938 45.957031 49.160156 46.230469 49.25 C 46.5 49.339844 46.695312 49.457031 46.816406 49.601562 C 46.933594 49.746094 46.992188 49.910156 46.992188 50.089844 L 46.992188 83.242188 "/><path style=" stroke:none;fill-rule:nonzero;fill:rgb(100%,100%,100%);fill-opacity:1;" d="M 72.246094 82.972656 C 72.15625 83.277344 72.039062 83.527344 71.890625 83.71875 C 71.746094 83.90625 71.511719 84.050781 71.183594 84.152344 C 70.855469 84.25 70.410156 84.3125 69.847656 84.339844 C 69.285156 84.367188 68.546875 84.382812 67.636719 84.382812 C 66.910156 84.382812 66.289062 84.378906 65.769531 84.367188 C 65.25 84.359375 64.8125 84.335938 64.445312 84.300781 C 64.082031 84.265625 63.789062 84.210938 63.558594 84.136719 C 63.332031 84.066406 63.140625 83.976562 62.988281 83.867188 C 62.832031 83.757812 62.714844 83.628906 62.632812 83.472656 C 62.550781 83.320312 62.472656 83.125 62.402344 82.890625 L 51.902344 51.773438 C 51.683594 51.121094 51.550781 50.605469 51.507812 50.226562 C 51.460938 49.847656 51.550781 49.5625 51.777344 49.371094 C 52.003906 49.183594 52.390625 49.066406 52.9375 49.019531 C 53.484375 48.976562 54.246094 48.953125 55.226562 48.953125 C 56.066406 48.953125 56.71875 48.96875 57.191406 49.007812 C 57.664062 49.042969 58.027344 49.105469 58.285156 49.195312 C 58.539062 49.285156 58.714844 49.421875 58.816406 49.601562 C 58.914062 49.785156 59.011719 50.011719 59.101562 50.28125 L 67.691406 77.355469 L 67.71875 77.355469 L 76.148438 50.417969 C 76.21875 50.109375 76.308594 49.859375 76.417969 49.671875 C 76.527344 49.480469 76.714844 49.332031 76.980469 49.222656 C 77.242188 49.113281 77.621094 49.042969 78.109375 49.007812 C 78.601562 48.96875 79.273438 48.953125 80.128906 48.953125 C 80.964844 48.953125 81.617188 48.980469 82.078125 49.035156 C 82.542969 49.085938 82.859375 49.21875 83.035156 49.425781 C 83.207031 49.636719 83.261719 49.929688 83.195312 50.308594 C 83.132812 50.6875 82.992188 51.195312 82.773438 51.828125 L 72.246094 82.972656 "/><path style=" stroke:none;fill-rule:nonzero;fill:rgb(100%,100%,100%);fill-opacity:1;" d="M 108.628906 81.425781 C 108.628906 81.949219 108.605469 82.386719 108.5625 82.742188 C 108.515625 83.09375 108.445312 83.378906 108.355469 83.59375 C 108.265625 83.8125 108.152344 83.972656 108.015625 84.070312 C 107.878906 84.167969 107.730469 84.21875 107.566406 84.21875 L 89.839844 84.21875 C 89.238281 84.21875 88.734375 84.042969 88.324219 83.691406 C 87.914062 83.335938 87.710938 82.765625 87.710938 81.96875 L 87.710938 51.367188 C 87.710938 50.570312 87.914062 49.996094 88.324219 49.644531 C 88.734375 49.289062 89.238281 49.113281 89.839844 49.113281 L 107.457031 49.113281 C 107.621094 49.113281 107.765625 49.160156 107.894531 49.25 C 108.019531 49.339844 108.128906 49.5 108.21875 49.726562 C 108.308594 49.953125 108.378906 50.242188 108.425781 50.59375 C 108.46875 50.945312 108.492188 51.394531 108.492188 51.9375 C 108.492188 52.441406 108.46875 52.871094 108.425781 53.226562 C 108.378906 53.578125 108.308594 53.863281 108.21875 54.078125 C 108.128906 54.296875 108.019531 54.453125 107.894531 54.554688 C 107.765625 54.652344 107.621094 54.703125 107.457031 54.703125 L 94.855469 54.703125 L 94.855469 63.277344 L 105.519531 63.277344 C 105.683594 63.277344 105.832031 63.324219 105.96875 63.425781 C 106.105469 63.523438 106.21875 63.679688 106.3125 63.886719 C 106.402344 64.09375 106.46875 64.375 106.515625 64.726562 C 106.5625 65.078125 106.582031 65.511719 106.582031 66.015625 C 106.582031 66.539062 106.5625 66.976562 106.515625 67.316406 C 106.46875 67.660156 106.402344 67.9375 106.3125 68.144531 C 106.21875 68.355469 106.105469 68.503906 105.96875 68.59375 C 105.832031 68.683594 105.683594 68.730469 105.519531 68.730469 L 94.855469 68.730469 L 94.855469 78.632812 L 107.566406 78.632812 C 107.730469 78.632812 107.878906 78.679688 108.015625 78.78125 C 108.152344 78.878906 108.265625 79.039062 108.355469 79.253906 C 108.445312 79.472656 108.515625 79.757812 108.5625 80.109375 C 108.605469 80.460938 108.628906 80.902344 108.628906 81.425781 "/></g></svg>